<?xml version="1.0" encoding="utf-8"?>
<!-- Generator: Adobe Illustrator 26.0.1, SVG Export Plug-In . SVG Version: 6.00 Build 0)  -->
<svg version="1.1" xmlns="http://www.w3.org/2000/svg" xmlns:xlink="http://www.w3.org/1999/xlink" x="0px" y="0px"
	 viewBox="0 0 24 24" style="enable-background:new 0 0 24 24;" xml:space="preserve">
<style type="text/css">
	.st0{fill:none;}
	.st1{clip-path:url(#SVGID_00000026885024387310296000000003299133460270192817_);}
	.st2{fill:none;stroke:#000000;stroke-width:0.25;stroke-miterlimit:10;}
	.st3{opacity:0.4;}
	
		.st4{clip-path:url(#SVGID_00000073722607103040050950000014223246683524788905_);fill:none;stroke:#000000;stroke-width:0.25;stroke-miterlimit:10;}
	.st5{clip-path:url(#SVGID_00000073722607103040050950000014223246683524788905_);}
	.st6{display:none;}
	.st7{display:inline;opacity:0.2;}
	.st8{fill:#EDF1ED;}
</style>
<symbol  id="material_x5F_system_x5F_icon_x5F_border" viewBox="0 -48 48 48">
	<rect y="-48" class="st0" width="48" height="48"/>
</symbol>
<symbol  id="material_x5F_system_x5F_icon_x5F_grid" viewBox="0 -48 48 48">
	<g>
		<defs>
			<rect id="SVGID_1_" x="0" y="-48" width="48" height="48"/>
		</defs>
		<clipPath id="SVGID_00000043450735850166405660000000339920214248871096_">
			<use xlink:href="#SVGID_1_"  style="overflow:visible;"/>
		</clipPath>
		<g style="clip-path:url(#SVGID_00000043450735850166405660000000339920214248871096_);">
			<g>
				<line class="st2" x1="2" y1="-48" x2="2" y2="0"/>
				<line class="st2" x1="4" y1="-48" x2="4" y2="0"/>
				<line class="st2" x1="6" y1="-48" x2="6" y2="0"/>
				<line class="st2" x1="8" y1="-48" x2="8" y2="0"/>
				<line class="st2" x1="10" y1="-48" x2="10" y2="0"/>
				<line class="st2" x1="12" y1="-48" x2="12" y2="0"/>
				<line class="st2" x1="14" y1="-48" x2="14" y2="0"/>
				<line class="st2" x1="16" y1="-48" x2="16" y2="0"/>
				<line class="st2" x1="18" y1="-48" x2="18" y2="0"/>
				<line class="st2" x1="20" y1="-48" x2="20" y2="0"/>
				<line class="st2" x1="22" y1="-48" x2="22" y2="0"/>
				<line class="st2" x1="24" y1="-48" x2="24" y2="0"/>
				<line class="st2" x1="26" y1="-48" x2="26" y2="0"/>
				<line class="st2" x1="28" y1="-48" x2="28" y2="0"/>
				<line class="st2" x1="30" y1="-48" x2="30" y2="0"/>
				<line class="st2" x1="32" y1="-48" x2="32" y2="0"/>
				<line class="st2" x1="34" y1="-48" x2="34" y2="0"/>
				<line class="st2" x1="36" y1="-48" x2="36" y2="0"/>
				<line class="st2" x1="38" y1="-48" x2="38" y2="0"/>
				<line class="st2" x1="40" y1="-48" x2="40" y2="0"/>
				<line class="st2" x1="42" y1="-48" x2="42" y2="0"/>
				<line class="st2" x1="44" y1="-48" x2="44" y2="0"/>
				<line class="st2" x1="46" y1="-48" x2="46" y2="0"/>
			</g>
			<g>
				<line class="st2" x1="0" y1="-2" x2="48" y2="-2"/>
				<line class="st2" x1="0" y1="-4" x2="48" y2="-4"/>
				<line class="st2" x1="0" y1="-6" x2="48" y2="-6"/>
				<line class="st2" x1="0" y1="-8" x2="48" y2="-8"/>
				<line class="st2" x1="0" y1="-10" x2="48" y2="-10"/>
				<line class="st2" x1="0" y1="-12" x2="48" y2="-12"/>
				<line class="st2" x1="0" y1="-14" x2="48" y2="-14"/>
				<line class="st2" x1="0" y1="-16" x2="48" y2="-16"/>
				<line class="st2" x1="0" y1="-18" x2="48" y2="-18"/>
				<line class="st2" x1="0" y1="-20" x2="48" y2="-20"/>
				<line class="st2" x1="0" y1="-22" x2="48" y2="-22"/>
				<line class="st2" x1="0" y1="-24" x2="48" y2="-24"/>
				<line class="st2" x1="0" y1="-26" x2="48" y2="-26"/>
				<line class="st2" x1="0" y1="-28" x2="48" y2="-28"/>
				<line class="st2" x1="0" y1="-30" x2="48" y2="-30"/>
				<line class="st2" x1="0" y1="-32" x2="48" y2="-32"/>
				<line class="st2" x1="0" y1="-34" x2="48" y2="-34"/>
				<line class="st2" x1="0" y1="-36" x2="48" y2="-36"/>
				<line class="st2" x1="0" y1="-38" x2="48" y2="-38"/>
				<line class="st2" x1="0" y1="-40" x2="48" y2="-40"/>
				<line class="st2" x1="0" y1="-42" x2="48" y2="-42"/>
				<line class="st2" x1="0" y1="-44" x2="48" y2="-44"/>
				<line class="st2" x1="0" y1="-46" x2="48" y2="-46"/>
			</g>
			<g>
				<path d="M47.75-0.25v-47.5H0.25v47.5H47.75 M48,0H0v-48h48V0L48,0z"/>
			</g>
		</g>
	</g>
</symbol>
<symbol  id="material_x5F_system_x5F_icon_x5F_keylines" viewBox="0 -48 48 48">
	<g class="st3">
		<defs>
			<rect id="SVGID_00000090290148239096483950000001823906698452378285_" x="0" y="-48" class="st3" width="48" height="48"/>
		</defs>
		<clipPath id="SVGID_00000182518204230311929650000006254613266788034435_">
			<use xlink:href="#SVGID_00000090290148239096483950000001823906698452378285_"  style="overflow:visible;"/>
		</clipPath>
		
			<line style="clip-path:url(#SVGID_00000182518204230311929650000006254613266788034435_);fill:none;stroke:#000000;stroke-width:0.25;stroke-miterlimit:10;" x1="24" y1="0" x2="24" y2="-48"/>
		
			<line style="clip-path:url(#SVGID_00000182518204230311929650000006254613266788034435_);fill:none;stroke:#000000;stroke-width:0.25;stroke-miterlimit:10;" x1="48" y1="-24" x2="0" y2="-24"/>
		
			<line style="clip-path:url(#SVGID_00000182518204230311929650000006254613266788034435_);fill:none;stroke:#000000;stroke-width:0.25;stroke-miterlimit:10;" x1="48" y1="-16" x2="0" y2="-16"/>
		
			<line style="clip-path:url(#SVGID_00000182518204230311929650000006254613266788034435_);fill:none;stroke:#000000;stroke-width:0.25;stroke-miterlimit:10;" x1="48" y1="-32" x2="0" y2="-32"/>
		
			<line style="clip-path:url(#SVGID_00000182518204230311929650000006254613266788034435_);fill:none;stroke:#000000;stroke-width:0.25;stroke-miterlimit:10;" x1="32" y1="-48" x2="32" y2="0"/>
		
			<line style="clip-path:url(#SVGID_00000182518204230311929650000006254613266788034435_);fill:none;stroke:#000000;stroke-width:0.25;stroke-miterlimit:10;" x1="16" y1="-48" x2="16" y2="0"/>
		
			<line style="clip-path:url(#SVGID_00000182518204230311929650000006254613266788034435_);fill:none;stroke:#000000;stroke-width:0.25;stroke-miterlimit:10;" x1="47.75" y1="-0.25" x2="0.25" y2="-47.75"/>
		
			<line style="clip-path:url(#SVGID_00000182518204230311929650000006254613266788034435_);fill:none;stroke:#000000;stroke-width:0.25;stroke-miterlimit:10;" x1="0.25" y1="-0.25" x2="47.75" y2="-47.75"/>
		
			<path style="clip-path:url(#SVGID_00000182518204230311929650000006254613266788034435_);fill:none;stroke:#000000;stroke-width:0.25;stroke-miterlimit:10;" d="
			M24-14c-5.52,0-10-4.48-10-10c0-5.52,4.48-10,10-10c5.52,0,10,4.48,10,10C34-18.48,29.52-14,24-14z"/>
		
			<path style="clip-path:url(#SVGID_00000182518204230311929650000006254613266788034435_);fill:none;stroke:#000000;stroke-width:0.25;stroke-miterlimit:10;" d="
			M24-4C12.95-4,4-12.95,4-24c0-11.05,8.95-20,20-20c11.05,0,20,8.95,20,20C44-12.95,35.05-4,24-4z"/>
		
			<path style="clip-path:url(#SVGID_00000182518204230311929650000006254613266788034435_);fill:none;stroke:#000000;stroke-width:0.25;stroke-miterlimit:10;" d="
			M38-6H10c-2.21,0-4-1.79-4-4v-28c0-2.21,1.79-4,4-4h28c2.21,0,4,1.79,4,4v28C42-7.79,40.21-6,38-6z"/>
		
			<path style="clip-path:url(#SVGID_00000182518204230311929650000006254613266788034435_);fill:none;stroke:#000000;stroke-width:0.25;stroke-miterlimit:10;" d="
			M40-8H8c-2.21,0-4-1.79-4-4v-24c0-2.21,1.79-4,4-4h32c2.21,0,4,1.79,4,4l0,24C44-9.79,42.21-8,40-8z"/>
		
			<path style="clip-path:url(#SVGID_00000182518204230311929650000006254613266788034435_);fill:none;stroke:#000000;stroke-width:0.25;stroke-miterlimit:10;" d="
			M40-40v32c0,2.21-1.79,4-4,4H12C9.79-4,8-5.79,8-8v-32c0-2.21,1.79-4,4-4h24C38.21-44,40-42.21,40-40z"/>
		<g style="clip-path:url(#SVGID_00000182518204230311929650000006254613266788034435_);">
			<path d="M47.75-0.25v-47.5H0.25v47.5H47.75 M48,0H0v-48h48V0L48,0z"/>
		</g>
	</g>
</symbol>
<g class="st6">
	<circle id="circle" class="st7" cx="12" cy="12" r="10"/>
	<path id="Rectangle" class="st7" d="M19,21H5c-1.1,0-2-0.9-2-2V5c0-1.1,0.9-2,2-2h14c1.1,0,2,0.9,2,2v14C21,20.1,20.1,21,19,21z"/>
	<path id="Vertical_Rectangle" class="st7" d="M6,22h12c1.1,0,2-0.9,2-2V4c0-1.1-0.9-2-2-2H6C4.9,2,4,2.9,4,4v16C4,21.1,4.9,22,6,22
		z"/>
	<path id="Horizontal_Rectangle" class="st7" d="M22,18V6c0-1.1-0.9-2-2-2H4C2.9,4,2,4.9,2,6v12c0,1.1,0.9,2,2,2h16
		C21.1,20,22,19.1,22,18z"/>
</g>
<g id="border" class="st6">
	
		<use xlink:href="#material_x5F_system_x5F_icon_x5F_border"  width="48" height="48" id="XMLID_2_" y="-48" transform="matrix(0.5 0 0 -0.5 -1.144415e-04 -8.010902e-05)" style="display:inline;overflow:visible;"/>
</g>
<g id="grid" class="st6">
	
		<use xlink:href="#material_x5F_system_x5F_icon_x5F_grid"  width="48" height="48" id="XMLID_1_" x="0" y="-48" transform="matrix(0.5 0 0 -0.5 -1.144415e-04 -8.010902e-05)" style="display:inline;overflow:visible;opacity:0.15;"/>
</g>
<g id="keylines" class="st6">
	
		<use xlink:href="#material_x5F_system_x5F_icon_x5F_keylines"  width="48" height="48" id="XMLID_3_" x="0" y="-48" transform="matrix(0.5 0 0 -0.5 -1.144415e-04 -8.010902e-05)" style="display:inline;overflow:visible;"/>
</g>
<g id="Ebene_5">
	<g>
		<path class="st8" d="M17.97,12.24c-0.14-1-0.81-1.76-1.57-1.76c-0.32,0-0.63,0.12-0.93,0.37c-0.03,0.03-0.06,0.05-0.09,0.08
			c0-0.2-0.01-0.39-0.03-0.58c-0.13-0.9-0.43-1.48-0.92-1.75c-0.32-0.2-0.6-0.29-0.86-0.29l-0.07,0c-0.52,0-1.06,0.31-1.45,0.83
			c-0.32,0.49-0.54,1.16-0.64,2l-0.05-0.02c-0.07-0.03-0.15-0.06-0.22-0.09c0.4-1.41,0.56-2.79,0.47-4.09
			c-0.11-1.2-0.31-2.59-0.98-3.76C10.16,2.35,9.65,2,8.93,2C8.89,2,8.84,2,8.8,2C7.89,2.05,7.25,2.79,7.08,3.98
			c-0.13,0.95,0.05,1.94,0.21,2.8c0.29,1.45,0.51,2.67,0.63,3.95l0.03,0.32c-0.27,0.1-0.48,0.21-0.66,0.36
			c-0.37,0.29-0.68,0.71-0.97,1.29c-0.55,1.1-0.4,2.6,0.42,4.01c0.42,0.68,1.06,1.36,1.76,1.87c-0.37,0.1-0.64,0.33-0.79,0.64
			c-0.18,0.37-0.14,0.86,0.11,1.28c0.17,0.26,0.41,0.45,0.69,0.66c0.67,0.49,1.5,0.75,2.55,0.81c0.19,0.02,0.37,0.02,0.56,0.02
			c1.03,0,1.92-0.26,2.68-0.76c0.41-0.28,0.7-0.73,0.77-1.19c0.05-0.36-0.02-0.69-0.23-0.97c0.94-0.75,1.64-1.85,1.97-3.11
			c0.03-0.1,0.05-0.21,0.06-0.29c0.14-0.15,0.27-0.32,0.39-0.52C17.73,14.41,18.12,13.17,17.97,12.24z M15.11,18.43
			c-0.58,0.52-1.14,0.88-1.71,1.09c-0.28,0.11-0.57,0.15-0.8,0.17c-0.06,0.01-0.12,0.01-0.17,0.01c-0.03,0-0.07,0-0.1,0
			c-0.03,0-0.07,0-0.1,0.03c-0.04,0.06-0.03,0.1-0.02,0.13c0.06,0.13,0.38,0.14,0.39,0.15l0.04,0c0.64,0,1.32-0.26,2.05-0.8
			c0.19,0.29,0.23,0.65,0.11,0.95c-0.22,0.61-0.77,1.06-1.65,1.36c-0.4,0.13-0.85,0.2-1.35,0.2c-0.04,0-0.08,0-0.12,0
			c-0.68,0-1.23-0.06-1.73-0.19c-0.48-0.11-0.94-0.33-1.37-0.65c-0.21-0.17-0.44-0.36-0.56-0.61c-0.13-0.29-0.15-0.59-0.07-0.84
			c0.08-0.23,0.25-0.41,0.49-0.52c0.11-0.05,0.24-0.09,0.38-0.11c0.37,0.23,0.73,0.4,1.07,0.51c0.02,0.01,0.04,0.01,0.06,0.01
			c0.03,0,0.05-0.02,0.06-0.04c0.01-0.02,0-0.05-0.02-0.07c-0.02-0.01-0.03-0.01-0.05-0.02c-0.01,0-0.02,0-0.03-0.01
			c-0.31-0.15-0.61-0.32-0.9-0.5c-0.79-0.51-1.45-1.13-1.96-1.86c-0.63-0.96-0.91-2.13-0.77-3.19c0.07-0.41,0.24-0.83,0.52-1.25
			c0.15-0.23,0.35-0.51,0.6-0.7c0.16-0.13,0.35-0.24,0.58-0.33l0,0.01l0.04-0.02c0.15-0.06,0.31-0.11,0.46-0.15
			c0.35-0.1,0.72-0.12,1.15-0.12l0.11,0c0.58,0,1.13,0.12,1.58,0.33c0.25,0.12,0.56,0.27,0.78,0.51c0.25,0.3,0.4,0.73,0.41,1.18
			c-0.03,0.61-0.35,1.21-0.87,1.61c-0.3,0.23-0.69,0.36-1.11,0.36l-0.05,0c-0.14,0-0.33-0.02-0.52-0.04l-0.05-0.01
			c-0.04-0.01-0.08-0.01-0.12-0.01c-0.11,0-0.17,0.05-0.18,0.15c-0.01,0.17,0.16,0.19,0.26,0.2l0.02,0
			c0.14,0.02,0.29,0.04,0.43,0.05c0.09,0.01,0.18,0.02,0.27,0.02c0.4,0,0.79-0.11,1.14-0.32c0.21,0.48,0.59,0.75,1.13,0.8
			c0.05,0.01,0.1,0.01,0.15,0.01c0.44,0,0.84-0.24,1.16-0.7c0.21,0.58,0.67,1.01,1.2,1.11c0.08,0.01,0.16,0.02,0.23,0.02
			c0.31,0,0.62-0.12,0.92-0.35c-0.01,0.04-0.02,0.07-0.03,0.11C16.24,17.01,15.75,17.82,15.11,18.43z M10.18,3
			c0.61,0.8,0.85,1.83,1,2.63c0.22,1.13,0.26,2.15,0.15,3.1c-0.08,0.72-0.22,1.47-0.41,2.22c-0.39-0.12-0.8-0.17-1.23-0.17l-0.12,0
			c-0.41,0-0.79,0.05-1.14,0.15c-0.06,0.01-0.12,0.03-0.17,0.05c-0.1-1.14-0.29-2.34-0.59-3.77L7.64,7.1
			C7.48,6.29,7.31,5.46,7.3,4.62c0-0.45,0.08-1.55,0.81-2.07c0.23-0.16,0.51-0.25,0.81-0.25c0.2,0,0.41,0.04,0.61,0.12
			C9.81,2.55,10.02,2.79,10.18,3z M12.62,8.94c0.26-0.21,0.55-0.32,0.86-0.32l0.07,0c0.3,0,0.61,0.13,0.95,0.4
			c0.31,0.3,0.44,0.75,0.53,1.12c0.22,0.94-0.04,2.17-0.25,3.02c-0.15,0.57-0.33,1.07-0.54,1.52c-0.03,0.07-0.07,0.14-0.09,0.19
			l-0.02-0.01l0,0.03c-0.27,0.47-0.64,0.71-1.07,0.71c-0.19,0-0.4-0.05-0.61-0.15c-0.23-0.11-0.37-0.33-0.44-0.51
			c0.23-0.18,0.42-0.4,0.57-0.64c0.16-0.3,0.35-0.76,0.32-1.27c-0.05-0.51-0.23-0.95-0.52-1.28c-0.2-0.22-0.48-0.38-0.73-0.51
			c0.1-0.53,0.2-1.05,0.4-1.54C12.14,9.4,12.35,9.14,12.62,8.94z M15.74,15.97l-0.03,0c-0.65,0-1.2-0.47-1.31-1.09
			c0.06-0.12,0.12-0.26,0.17-0.4c0.22-0.53,0.4-1.07,0.53-1.6c0.11-0.47,0.22-1.03,0.26-1.6c0.17-0.17,0.33-0.3,0.51-0.38
			c0.15-0.08,0.31-0.12,0.48-0.12c0.3,0,0.59,0.12,0.8,0.34c0.33,0.35,0.47,0.83,0.53,1.17c0.13,0.9-0.19,1.91-0.55,2.56
			C16.84,15.31,16.38,15.93,15.74,15.97z"/>
		<path class="st8" d="M12.63,17.45c-0.1-0.26-0.24-0.59-0.43-0.9c-0.22-0.35-0.47-0.64-0.76-0.85c-0.04-0.03-0.07-0.05-0.1-0.05
			c-0.02,0-0.04,0.01-0.04,0.03c-0.02,0.04,0.01,0.11,0.04,0.15c0.08,0.12,0.17,0.24,0.26,0.36c0.34,0.46,0.69,0.93,0.86,1.5
			c0.02,0.05,0.06,0.08,0.12,0.08c0.02,0,0.03,0,0.05-0.01c0.12-0.06,0.06-0.19,0.03-0.27C12.64,17.48,12.63,17.47,12.63,17.45z"/>
	</g>
</g>
</svg>
