<svg id="Ebene_1" data-name="Ebene 1" xmlns="http://www.w3.org/2000/svg" viewBox="0 0 595.8 581.1"><defs><style>.cls-1{fill:#1b1f23;fill-rule:evenodd;}</style></defs><path class="cls-1" d="M297.9,0C133.31,0,0,133.31,0,297.9,0,429.72,85.27,541.06,203.69,580.53c14.89,2.61,20.48-6.33,20.48-14.15,0-7.07-.37-30.53-.37-55.48-74.85,13.78-94.21-18.25-100.17-35-3.35-8.57-17.88-35-30.54-42.08-10.42-5.59-25.32-19.37-.37-19.74,23.46-.37,40.22,21.6,45.8,30.54,26.81,45.05,69.64,32.39,86.77,24.57,2.6-19.36,10.42-32.39,19-39.84C178,421.9,108.73,396.21,108.73,282.26c0-32.4,11.55-59.21,30.54-80.06-3-7.45-13.41-38,3-78.94,0,0,24.95-7.82,81.92,30.53a281,281,0,0,1,149,0c57-38.73,81.92-30.53,81.92-30.53,16.39,41,6,71.49,3,78.94,19,20.85,30.54,47.29,30.54,80.06,0,114.32-69.64,139.64-135.92,147.09,10.8,9.31,20.11,27.18,20.11,55.11,0,39.84-.37,71.87-.37,81.92,0,7.82,5.58,17.13,20.48,14.15C510.53,541.06,595.8,429.35,595.8,297.9,595.8,133.31,462.49,0,297.9,0Z"/></svg>