<svg id="Ebene_1" data-name="Ebene 1" xmlns="http://www.w3.org/2000/svg" viewBox="0 0 581.1 581.1"><defs><style>.cls-1{fill:#1b1f23;}</style></defs><path class="cls-1" d="M232.11,261.31c5.46-3.95,7.79-10.76,7.79-19.45a29.54,29.54,0,0,0-2.33-12.45c-1.52-3.14-3.85-5.38-7-7.8a39.09,39.09,0,0,0-10.12-3.85,67.48,67.48,0,0,0-12.55-.9h-44.8v50.45l48,.27C219.65,267.58,226.64,265.25,232.11,261.31Z"/><path class="cls-1" d="M412.21,277c-5.38-5.38-14-8.52-24.2-8.52a36.23,36.23,0,0,0-17,3.86,39.78,39.78,0,0,0-10.75,8.51,21.55,21.55,0,0,0-5.38,10.75c-.72,3.77-1.52,7-1.52,10.13h69.89A41.22,41.22,0,0,0,412.3,277Z"/><path class="cls-1" d="M238.92,306.56c-6.28-4.66-14.79-7-24.82-7H163v59.76l50.36.09a68.61,68.61,0,0,0,13.17-1.52,27.8,27.8,0,0,0,18.55-13.17,37.52,37.52,0,0,0,3.13-14C248.23,320,245.1,312.11,238.92,306.56Z"/><path class="cls-1" d="M290.55,0C130.08,0,0,130.08,0,290.55S130.08,581.1,290.55,581.1,581.1,451,581.1,290.55,451,0,290.55,0Zm53.56,195.45H431v21H344.11ZM289.63,360.68a52,52,0,0,1-17,19.44,77.06,77.06,0,0,1-24.82,10.75,120.55,120.55,0,0,1-28,3.86H115.89V180.66H217.41a106.62,106.62,0,0,1,28,3.14,61.46,61.46,0,0,1,21.77,8.51,35.81,35.81,0,0,1,14,16.31,61.89,61.89,0,0,1,4.66,24.82c0,10.75-2.33,20.16-7.8,27.15-4.66,7-12.54,13.17-21.77,17.92a52,52,0,0,1,29.48,20.16,60.64,60.64,0,0,1,10.12,34.05A61.8,61.8,0,0,1,289.63,360.68ZM464.89,328H352.53a44.86,44.86,0,0,0,10.75,30.29v.27c6.28,6.27,15.51,9.31,28,9.31a41.15,41.15,0,0,0,22.4-6.27,30.43,30.43,0,0,0,11.65-14h38.08c-6.27,18.64-15.5,31.81-28,40.33-12.54,7.79-27.14,12.54-45.07,12.54a91.42,91.42,0,0,1-33.42-6.18,61.83,61.83,0,0,1-24.82-17.12,60,60,0,0,1-15.5-25.62,91.29,91.29,0,0,1-5.46-33.42c0-11.65,1.52-22.41,5.37-32.62a82.28,82.28,0,0,1,16.31-26.43A78.82,78.82,0,0,1,357.64,242a88,88,0,0,1,32.61-6.27c13.18,0,24.82,2.33,34.95,7.8s17.92,11.64,24.19,21a94.25,94.25,0,0,1,14,29.48A162,162,0,0,1,464.89,328Z"/></svg>