<svg id="Ebene_1" data-name="Ebene 1" xmlns="http://www.w3.org/2000/svg" viewBox="0 0 581.1 581.1"><defs><style>.cls-1{fill:#1b1f23;}</style></defs><polygon class="cls-1" points="275.27 233.27 275.27 172.91 172.03 241.41 217.91 271.85 275.27 233.27"/><polygon class="cls-1" points="171.91 339.61 275.27 408.19 275.27 346.57 218.03 308.59 171.91 339.61"/><polygon class="cls-1" points="159.68 269.88 159.68 311.01 190.47 290.31 159.68 269.88"/><polygon class="cls-1" points="409.07 241.41 305.83 172.91 305.83 233.27 363.19 271.85 409.07 241.41"/><path class="cls-1" d="M290.55,0C130.08,0,0,130.08,0,290.55S130.08,581.1,290.55,581.1,581.1,451,581.1,290.55,451,0,290.55,0ZM452,339.7a15.27,15.27,0,0,1-6.83,12.73L299,449.39a15.26,15.26,0,0,1-16.89,0L136.24,352.62a15.25,15.25,0,0,1-4.33-4.12l-.3-.45a15.26,15.26,0,0,1-2.49-8.56V241.62a15.37,15.37,0,0,1,5.42-11.89h0q.51-.43,1-.81c.12-.08.23-.17.36-.25l146-96.84a15.19,15.19,0,0,1,8.53-2.67h.18a15.19,15.19,0,0,1,8.53,2.67l146,96.84a15.31,15.31,0,0,1,6.83,13Z"/><polygon class="cls-1" points="290.55 259.81 245.47 290.13 290.55 320.04 335.63 290.13 290.55 259.81"/><polygon class="cls-1" points="421.42 311.02 421.42 269.88 390.63 290.31 421.42 311.02"/><polygon class="cls-1" points="305.83 346.57 305.83 408.19 409.2 339.62 363.07 308.59 305.83 346.57"/></svg>