<?xml version="1.0" encoding="utf-8"?>
<!-- Generator: Adobe Illustrator 26.0.1, SVG Export Plug-In . SVG Version: 6.00 Build 0)  -->
<svg version="1.1" id="Ebene_1" xmlns="http://www.w3.org/2000/svg" xmlns:xlink="http://www.w3.org/1999/xlink" x="0px" y="0px"
	 viewBox="0 0 872.8 826.8" style="enable-background:new 0 0 872.8 826.8;" xml:space="preserve">
<style type="text/css">
	.st0{fill:#FFFFFF;}
</style>
<g>
	<path style="fill: white class="st0" d="M255.8,616.9V206.3L68.5,318l45.3,45.9v236.7c0,27.8-9.5,54.1-28.6,78.8C66.1,704.2,37.7,726,0,744.8l136.4,82
		c16.9-11.8,32.7-25.7,47.3-41.7c14.6-16,27.2-33.2,37.8-51.6c10.6-18.3,19-37.4,25.1-57.2C252.7,656.5,255.8,636.7,255.8,616.9z"/>
	
		<rect style="fill: pink" x="500.7" y="-35.7" transform="matrix(3.565168e-03 -1 1 3.565168e-03 498.4939 581.2046)" class="st0" width="80.4" height="152.4"/>
	
		<rect style="fill: pink" x="681.4" y="33.1" transform="matrix(3.565379e-03 -1 1 3.565379e-03 638.2931 802.0702)" class="st0" width="80.4" height="95.3"/>
	<path style="fill: pink" class="st0" d="M872,368c-2.6-31.4-11.1-60.3-25.4-86.7c-14.3-26.4-32.7-48.8-55.1-67.4c-22.5-18.5-48.1-32.6-76.9-42.1
		s-59-13.2-90.7-11s-61,10-87.9,23.5c-26.8,13.4-49.8,30.9-68.9,52.3c-8.7,9.7-16.4,20.1-23.1,31.2V160.3V95.6l-108.5,64.7
		l-64.2,38.3l-14.6,8.6l45.2,45.3v400.6l-59.3,79.2h261.5H634V606.8c9,0.4,18.1,0.2,27.3-0.4c31.6-2.2,60.9-10,87.8-23.4
		s49.9-30.8,69-52.3c19-21.4,33.5-46,43.2-73.8C871.1,429.1,874.6,399.5,872,368z M460.5,675.4l-16.2,7.6v-28.7l-0.3-0.4V495.5
		c13.4,22.2,30,41.4,49.7,57.8c22.5,18.5,48.1,32.6,76.9,42.1c13,4.3,26.3,7.4,39.9,9.3L460.5,675.4z M632.5,474.1
		c-26.1,12.5-54.2,19.8-84.2,21.9c-17.5,1.2-35.9,0.3-55.4-2.6c8-28.5,19.6-55.4,34.8-80.9c14.4-24.3,31.7-46.1,51.9-65.4
		c6,20.6,15.1,43.3,28.7,62c14.5,19.9,34.8,36.4,53.5,48.8C652.4,463.8,642.6,469.3,632.5,474.1z M757.8,357.5
		c-15.1,25.8-33.3,48.5-54.4,68.2c-1,0.9-2,1.9-3.1,2.8c-6-21.3-15.2-45.2-29.4-64.8c-14.2-19.6-34-35.8-52.3-48.1
		c11.2-7.5,23-14.3,35.2-20.1c26.1-12.5,54.2-19.8,84.2-21.9c16.9-1.2,35.1-0.3,54.6,2.6C784.5,304.7,772.9,331.8,757.8,357.5z"/>
</g>
</svg>
