<?xml version="1.0" encoding="utf-8"?>
<!-- Generator: Adobe Illustrator 26.0.1, SVG Export Plug-In . SVG Version: 6.00 Build 0)  -->
<svg version="1.1" xmlns="http://www.w3.org/2000/svg" xmlns:xlink="http://www.w3.org/1999/xlink" x="0px" y="0px"
	 viewBox="0 0 24 24" style="enable-background:new 0 0 24 24;" xml:space="preserve">
<style type="text/css">
	.st0{fill:none;}
	.st1{clip-path:url(#SVGID_00000060018468058240714850000005352167055389082786_);}
	.st2{fill:none;stroke:#000000;stroke-width:0.25;stroke-miterlimit:10;}
	.st3{opacity:0.4;}
	
		.st4{clip-path:url(#SVGID_00000124854467343240781730000004765903806068827568_);fill:none;stroke:#000000;stroke-width:0.25;stroke-miterlimit:10;}
	.st5{clip-path:url(#SVGID_00000124854467343240781730000004765903806068827568_);}
	.st6{display:none;}
	.st7{display:inline;opacity:0.2;}
	.st8{display:none;fill:#EDF1ED;}
	.st9{fill:#EDF1ED;}
</style>
<symbol  id="material_x5F_system_x5F_icon_x5F_border" viewBox="0 -48 48 48">
	<rect y="-48" class="st0" width="48" height="48"/>
</symbol>
<symbol  id="material_x5F_system_x5F_icon_x5F_grid" viewBox="0 -48 48 48">
	<g>
		<defs>
			<rect id="SVGID_1_" x="0" y="-48" width="48" height="48"/>
		</defs>
		<clipPath id="SVGID_00000096021369103890630100000002575220143289189552_">
			<use xlink:href="#SVGID_1_"  style="overflow:visible;"/>
		</clipPath>
		<g style="clip-path:url(#SVGID_00000096021369103890630100000002575220143289189552_);">
			<g>
				<line class="st2" x1="2" y1="-48" x2="2" y2="0"/>
				<line class="st2" x1="4" y1="-48" x2="4" y2="0"/>
				<line class="st2" x1="6" y1="-48" x2="6" y2="0"/>
				<line class="st2" x1="8" y1="-48" x2="8" y2="0"/>
				<line class="st2" x1="10" y1="-48" x2="10" y2="0"/>
				<line class="st2" x1="12" y1="-48" x2="12" y2="0"/>
				<line class="st2" x1="14" y1="-48" x2="14" y2="0"/>
				<line class="st2" x1="16" y1="-48" x2="16" y2="0"/>
				<line class="st2" x1="18" y1="-48" x2="18" y2="0"/>
				<line class="st2" x1="20" y1="-48" x2="20" y2="0"/>
				<line class="st2" x1="22" y1="-48" x2="22" y2="0"/>
				<line class="st2" x1="24" y1="-48" x2="24" y2="0"/>
				<line class="st2" x1="26" y1="-48" x2="26" y2="0"/>
				<line class="st2" x1="28" y1="-48" x2="28" y2="0"/>
				<line class="st2" x1="30" y1="-48" x2="30" y2="0"/>
				<line class="st2" x1="32" y1="-48" x2="32" y2="0"/>
				<line class="st2" x1="34" y1="-48" x2="34" y2="0"/>
				<line class="st2" x1="36" y1="-48" x2="36" y2="0"/>
				<line class="st2" x1="38" y1="-48" x2="38" y2="0"/>
				<line class="st2" x1="40" y1="-48" x2="40" y2="0"/>
				<line class="st2" x1="42" y1="-48" x2="42" y2="0"/>
				<line class="st2" x1="44" y1="-48" x2="44" y2="0"/>
				<line class="st2" x1="46" y1="-48" x2="46" y2="0"/>
			</g>
			<g>
				<line class="st2" x1="0" y1="-2" x2="48" y2="-2"/>
				<line class="st2" x1="0" y1="-4" x2="48" y2="-4"/>
				<line class="st2" x1="0" y1="-6" x2="48" y2="-6"/>
				<line class="st2" x1="0" y1="-8" x2="48" y2="-8"/>
				<line class="st2" x1="0" y1="-10" x2="48" y2="-10"/>
				<line class="st2" x1="0" y1="-12" x2="48" y2="-12"/>
				<line class="st2" x1="0" y1="-14" x2="48" y2="-14"/>
				<line class="st2" x1="0" y1="-16" x2="48" y2="-16"/>
				<line class="st2" x1="0" y1="-18" x2="48" y2="-18"/>
				<line class="st2" x1="0" y1="-20" x2="48" y2="-20"/>
				<line class="st2" x1="0" y1="-22" x2="48" y2="-22"/>
				<line class="st2" x1="0" y1="-24" x2="48" y2="-24"/>
				<line class="st2" x1="0" y1="-26" x2="48" y2="-26"/>
				<line class="st2" x1="0" y1="-28" x2="48" y2="-28"/>
				<line class="st2" x1="0" y1="-30" x2="48" y2="-30"/>
				<line class="st2" x1="0" y1="-32" x2="48" y2="-32"/>
				<line class="st2" x1="0" y1="-34" x2="48" y2="-34"/>
				<line class="st2" x1="0" y1="-36" x2="48" y2="-36"/>
				<line class="st2" x1="0" y1="-38" x2="48" y2="-38"/>
				<line class="st2" x1="0" y1="-40" x2="48" y2="-40"/>
				<line class="st2" x1="0" y1="-42" x2="48" y2="-42"/>
				<line class="st2" x1="0" y1="-44" x2="48" y2="-44"/>
				<line class="st2" x1="0" y1="-46" x2="48" y2="-46"/>
			</g>
			<g>
				<path d="M47.75-0.25v-47.5H0.25v47.5H47.75 M48,0H0v-48h48V0L48,0z"/>
			</g>
		</g>
	</g>
</symbol>
<symbol  id="material_x5F_system_x5F_icon_x5F_keylines" viewBox="0 -48 48 48">
	<g class="st3">
		<defs>
			<rect id="SVGID_00000098218760850156056140000001565946695632420246_" x="0" y="-48" class="st3" width="48" height="48"/>
		</defs>
		<clipPath id="SVGID_00000053515366137526460340000006693950501185155216_">
			<use xlink:href="#SVGID_00000098218760850156056140000001565946695632420246_"  style="overflow:visible;"/>
		</clipPath>
		
			<line style="clip-path:url(#SVGID_00000053515366137526460340000006693950501185155216_);fill:none;stroke:#000000;stroke-width:0.25;stroke-miterlimit:10;" x1="24" y1="0" x2="24" y2="-48"/>
		
			<line style="clip-path:url(#SVGID_00000053515366137526460340000006693950501185155216_);fill:none;stroke:#000000;stroke-width:0.25;stroke-miterlimit:10;" x1="48" y1="-24" x2="0" y2="-24"/>
		
			<line style="clip-path:url(#SVGID_00000053515366137526460340000006693950501185155216_);fill:none;stroke:#000000;stroke-width:0.25;stroke-miterlimit:10;" x1="48" y1="-16" x2="0" y2="-16"/>
		
			<line style="clip-path:url(#SVGID_00000053515366137526460340000006693950501185155216_);fill:none;stroke:#000000;stroke-width:0.25;stroke-miterlimit:10;" x1="48" y1="-32" x2="0" y2="-32"/>
		
			<line style="clip-path:url(#SVGID_00000053515366137526460340000006693950501185155216_);fill:none;stroke:#000000;stroke-width:0.25;stroke-miterlimit:10;" x1="32" y1="-48" x2="32" y2="0"/>
		
			<line style="clip-path:url(#SVGID_00000053515366137526460340000006693950501185155216_);fill:none;stroke:#000000;stroke-width:0.25;stroke-miterlimit:10;" x1="16" y1="-48" x2="16" y2="0"/>
		
			<line style="clip-path:url(#SVGID_00000053515366137526460340000006693950501185155216_);fill:none;stroke:#000000;stroke-width:0.25;stroke-miterlimit:10;" x1="47.75" y1="-0.25" x2="0.25" y2="-47.75"/>
		
			<line style="clip-path:url(#SVGID_00000053515366137526460340000006693950501185155216_);fill:none;stroke:#000000;stroke-width:0.25;stroke-miterlimit:10;" x1="0.25" y1="-0.25" x2="47.75" y2="-47.75"/>
		
			<path style="clip-path:url(#SVGID_00000053515366137526460340000006693950501185155216_);fill:none;stroke:#000000;stroke-width:0.25;stroke-miterlimit:10;" d="
			M24-14c-5.52,0-10-4.48-10-10c0-5.52,4.48-10,10-10c5.52,0,10,4.48,10,10C34-18.48,29.52-14,24-14z"/>
		
			<path style="clip-path:url(#SVGID_00000053515366137526460340000006693950501185155216_);fill:none;stroke:#000000;stroke-width:0.25;stroke-miterlimit:10;" d="
			M24-4C12.95-4,4-12.95,4-24c0-11.05,8.95-20,20-20c11.05,0,20,8.95,20,20C44-12.95,35.05-4,24-4z"/>
		
			<path style="clip-path:url(#SVGID_00000053515366137526460340000006693950501185155216_);fill:none;stroke:#000000;stroke-width:0.25;stroke-miterlimit:10;" d="
			M38-6H10c-2.21,0-4-1.79-4-4v-28c0-2.21,1.79-4,4-4h28c2.21,0,4,1.79,4,4v28C42-7.79,40.21-6,38-6z"/>
		
			<path style="clip-path:url(#SVGID_00000053515366137526460340000006693950501185155216_);fill:none;stroke:#000000;stroke-width:0.25;stroke-miterlimit:10;" d="
			M40-8H8c-2.21,0-4-1.79-4-4v-24c0-2.21,1.79-4,4-4h32c2.21,0,4,1.79,4,4l0,24C44-9.79,42.21-8,40-8z"/>
		
			<path style="clip-path:url(#SVGID_00000053515366137526460340000006693950501185155216_);fill:none;stroke:#000000;stroke-width:0.25;stroke-miterlimit:10;" d="
			M40-40v32c0,2.21-1.79,4-4,4H12C9.79-4,8-5.79,8-8v-32c0-2.21,1.79-4,4-4h24C38.21-44,40-42.21,40-40z"/>
		<g style="clip-path:url(#SVGID_00000053515366137526460340000006693950501185155216_);">
			<path d="M47.75-0.25v-47.5H0.25v47.5H47.75 M48,0H0v-48h48V0L48,0z"/>
		</g>
	</g>
</symbol>
<g class="st6">
	<circle id="circle" class="st7" cx="12" cy="12" r="10"/>
	<path id="Rectangle" class="st7" d="M19,21H5c-1.1,0-2-0.9-2-2V5c0-1.1,0.9-2,2-2h14c1.1,0,2,0.9,2,2v14C21,20.1,20.1,21,19,21z"/>
	<path id="Vertical_Rectangle" class="st7" d="M6,22h12c1.1,0,2-0.9,2-2V4c0-1.1-0.9-2-2-2H6C4.9,2,4,2.9,4,4v16C4,21.1,4.9,22,6,22
		z"/>
	<path id="Horizontal_Rectangle" class="st7" d="M22,18V6c0-1.1-0.9-2-2-2H4C2.9,4,2,4.9,2,6v12c0,1.1,0.9,2,2,2h16
		C21.1,20,22,19.1,22,18z"/>
</g>
<g id="border" class="st6">
	
		<use xlink:href="#material_x5F_system_x5F_icon_x5F_border"  width="48" height="48" id="XMLID_2_" y="-48" transform="matrix(0.5 0 0 -0.5 -1.144415e-04 -8.010902e-05)" style="display:inline;overflow:visible;"/>
</g>
<g id="grid" class="st6">
	
		<use xlink:href="#material_x5F_system_x5F_icon_x5F_grid"  width="48" height="48" id="XMLID_1_" x="0" y="-48" transform="matrix(0.5 0 0 -0.5 -1.144415e-04 -8.010902e-05)" style="display:inline;overflow:visible;opacity:0.15;"/>
</g>
<g id="keylines" class="st6">
	
		<use xlink:href="#material_x5F_system_x5F_icon_x5F_keylines"  width="48" height="48" id="XMLID_3_" x="0" y="-48" transform="matrix(0.5 0 0 -0.5 -1.144415e-04 -8.010902e-05)" style="display:inline;overflow:visible;"/>
</g>
<g id="Ebene_5">
	<path class="st8" d="M19.72,6.64c-0.19-0.39-0.39-0.66-0.63-0.84c-0.17-0.13-0.39-0.2-0.62-0.2c-0.31,0-0.63,0.13-0.87,0.35
		c-0.55,0.49-0.86,1.5-1.11,2.31c-0.06,0.19-0.11,0.37-0.17,0.53c-0.26,0.94-0.54,1.79-0.83,2.61c-0.09-0.03-0.17-0.06-0.26-0.09
		c0.16-0.8,0.28-1.46,0.36-2.06c0.07-0.49,0.12-1.03,0.16-1.75c0.07-0.98,0.11-2.02-0.1-3.07c-0.07-0.35-0.17-0.8-0.36-1.23
		C14.95,2.51,14.35,2.05,13.74,2c-0.03,0-0.06,0-0.09,0c-0.45,0-0.91,0.28-1.28,0.78c-0.2,0.25-0.29,0.56-0.36,0.83
		c-0.22,0.83-0.17,1.71-0.11,2.57l0.02,0.24c0.04,0.61,0.07,1.27,0.11,2.02c0.04,0.9,0.15,1.8,0.25,2.61
		c-0.17,0.02-0.35,0.07-0.53,0.14c-0.06-0.25-0.11-0.5-0.16-0.75c-0.12-0.62-0.22-1.25-0.32-1.86c-0.05-0.32-0.1-0.65-0.16-0.97
		c-0.2-1.08-0.47-2.3-1.26-3.19C9.51,4.06,8.84,3.45,7.96,3.45c-0.02,0-0.04,0-0.06,0C7.54,3.46,7.19,3.68,6.98,4.04
		C6.43,4.98,6.87,6.48,7.13,7.37c0.34,1.07,0.77,2.14,1.28,3.16c0.28,0.55,0.59,1.13,0.95,1.65c-0.28,0.45-0.44,1.02-0.48,1.64
		c-0.5-0.29-1.02-0.47-1.57-0.56c-0.2-0.04-0.41-0.06-0.62-0.06c-0.72,0-1.42,0.25-2.03,0.72C4.23,14.26,4,14.67,4,15.11
		c0,0.45,0.25,0.9,0.72,1.26c0.7,0.5,1.52,0.73,2.32,0.96l0.02,0.01c0.42,0.12,0.85,0.24,1.22,0.49c0.26,0.16,0.5,0.34,0.74,0.52
		c0.16,0.12,0.32,0.24,0.49,0.36c0.16,0.11,0.33,0.21,0.5,0.29c-0.33,0.21-0.56,0.54-0.61,0.91c-0.06,0.41,0.09,0.81,0.42,1.14
		c0.72,0.69,1.72,0.86,2.68,0.96c0.32,0.03,0.63,0.05,0.91,0.05c1.04,0,1.89-0.21,2.53-0.62c0.52-0.34,0.88-0.91,0.93-1.5
		c0.02-0.32-0.09-0.63-0.29-0.88c0.47-0.34,0.89-0.79,1.22-1.3c0.35-0.56,0.55-1.27,0.61-2.11c0.05-0.63-0.04-1.29-0.27-1.97
		c-0.05-0.15-0.11-0.29-0.19-0.46c0.16-0.24,0.32-0.5,0.48-0.77c0.46-0.77,0.98-1.64,1.26-2.59C19.96,8.82,20.21,7.65,19.72,6.64z
		 M17.64,13.26L17.64,13.26l0.02,0.05c0.1,0.2,0.19,0.42,0.27,0.67c0.33,1.02,0.25,2.25-0.23,3.28c-0.28,0.56-0.73,1.08-1.31,1.51
		c-0.55,0.4-1.23,0.64-2.03,0.72c-0.13,0.02-0.15,0.09-0.15,0.14c0,0.12,0.12,0.13,0.18,0.14c0.06,0.01,0.13,0.01,0.2,0.01
		c0.6-0.02,1.22-0.22,1.79-0.58c0.16,0.19,0.23,0.43,0.19,0.71c-0.05,0.48-0.39,1-0.82,1.28c-0.69,0.46-1.53,0.52-2.18,0.52
		c-0.05,0-0.11,0-0.16,0c-0.49-0.01-1.02-0.07-1.6-0.17c-0.57-0.1-1.02-0.25-1.39-0.48c-0.41-0.22-0.79-0.68-0.68-1.19
		c0.07-0.3,0.27-0.55,0.54-0.66c0.02-0.01,0.05-0.02,0.07-0.03l0.02-0.01c0.35,0.14,0.69,0.22,1.04,0.24c0.06,0,0.12,0,0.18,0
		c0.27,0,0.55-0.02,0.81-0.15c0.06-0.03,0.09-0.07,0.07-0.13c-0.01-0.04-0.04-0.06-0.1-0.06c0,0,0,0-0.01,0
		c-0.09,0.02-0.19,0.04-0.28,0.05c-0.11,0.01-0.22,0.02-0.34,0.02l-0.02,0c-0.12,0-0.24-0.01-0.36-0.02
		c-0.12-0.01-0.24-0.04-0.36-0.06c-0.12-0.03-0.24-0.06-0.35-0.1c-0.1-0.03-0.22-0.08-0.34-0.14c-0.4-0.2-0.77-0.47-1.13-0.75
		c-0.49-0.37-0.94-0.63-1.38-0.78c-0.28-0.1-0.57-0.18-0.85-0.26c-0.66-0.19-1.35-0.39-1.96-0.78c-0.27-0.17-0.5-0.47-0.63-0.81
		c-0.33-1.02,1.01-1.61,1.28-1.72c0.33-0.14,0.7-0.21,1.09-0.21c0.26,0,0.54,0.03,0.82,0.09c0.49,0.08,0.99,0.28,1.45,0.6
		c0.36,0.23,0.69,0.53,1,0.82c0.02,0.02,0.05,0.03,0.08,0.03c0.05,0,0.09-0.03,0.11-0.08c0.02-0.05,0.01-0.1-0.03-0.13
		c-0.11-0.11-0.23-0.23-0.35-0.33c-0.2-0.17-0.41-0.33-0.63-0.48c0.03-0.6,0.15-1.13,0.37-1.58c0.09,0.12,0.18,0.23,0.26,0.33
		c0.01,0.04,0.05,0.06,0.08,0.07c0.02,0.01,0.03,0.02,0.05,0.02c0.02,0,0.05-0.01,0.07-0.03c0.07-0.07,0.03-0.16,0-0.22l-0.01-0.02
		c-0.08-0.16-0.18-0.32-0.28-0.47c-0.04-0.06-0.08-0.12-0.12-0.19c-0.51-0.85-0.96-1.7-1.34-2.53C7.85,8.43,6.54,5.49,7.22,4.3
		c0.16-0.31,0.43-0.48,0.76-0.48c0.06,0,0.12,0.01,0.18,0.02c0.8,0.13,1.55,0.8,2,1.79c0.35,0.76,0.49,1.61,0.63,2.43l0.04,0.24
		l0.04,0.21c0.15,0.85,0.31,1.73,0.51,2.59l0.05,0.21c-0.02,0.01-0.03,0.02-0.05,0.03c-0.09,0.05-0.13,0.18-0.08,0.28
		c0.03,0.07,0.1,0.11,0.17,0.11c0.02,0,0.04,0,0.06-0.01c0.07-0.03,0.13-0.05,0.2-0.08c0.12-0.05,0.24-0.1,0.36-0.14
		c0.32-0.1,0.64-0.15,0.95-0.19l0,0h0.01c0.04,0,0.08-0.04,0.08-0.08c0-0.05-0.02-0.09-0.05-0.09c-0.16-0.11-0.36-0.12-0.53-0.12
		c-0.15-1.3-0.21-2.62-0.28-3.89c-0.02-0.29-0.03-0.57-0.05-0.86l-0.01-0.15c-0.07-1-0.14-2.04,0.28-2.94
		c0.23-0.37,0.53-0.63,0.86-0.74c0.07-0.02,0.15-0.03,0.22-0.03c0.14,0,0.3,0.04,0.48,0.11C14.4,2.68,14.7,2.95,14.9,3.3
		c0.2,0.4,0.3,0.87,0.4,1.39c0.14,0.69,0.14,1.38,0.13,1.96c-0.02,0.79-0.06,1.72-0.18,2.67c-0.08,0.61-0.19,1.24-0.34,1.94
		c-0.03-0.01-0.05-0.01-0.08-0.02l-0.02,0c-0.05-0.01-0.14-0.02-0.23-0.02c-0.12,0-0.19,0.02-0.22,0.07c-0.02,0.02-0.03,0.06,0,0.13
		c0.03,0.05,0.08,0.06,0.12,0.07c0.06,0.02,0.12,0.03,0.18,0.04c0.07,0.02,0.14,0.03,0.21,0.05c0.3,0.07,0.59,0.21,0.86,0.34
		c0.02,0.01,0.05,0.02,0.07,0.02c0.07,0,0.13-0.04,0.16-0.11c0.02-0.05,0.02-0.1,0.01-0.14c-0.03-0.09-0.14-0.14-0.23-0.18l-0.01,0
		l0-0.01l-0.01,0c0.32-0.82,0.6-1.7,0.85-2.61c0.04-0.13,0.08-0.26,0.12-0.39c0.21-0.69,0.42-1.39,0.82-1.99
		c0.22-0.33,0.58-0.54,0.92-0.54c0.11,0,0.22,0.02,0.32,0.07c0.69,0.37,0.93,1.24,0.94,1.94c0.01,0.59-0.12,1.17-0.25,1.67
		c-0.08,0.31-0.18,0.59-0.3,0.87c-0.36,0.82-0.84,1.66-1.52,2.66l-0.02,0.03C17.61,13.21,17.64,13.25,17.64,13.26z"/>
	<path class="st9" d="M18.64,9.23c-0.02-0.01-0.03-0.01-0.05-0.02c0.14-0.18,0.24-0.39,0.29-0.61c0.17-0.74,0.02-1.74-0.38-2.55
		c-0.4-0.78-0.96-1.37-1.62-1.73c-0.4-0.23-0.78-0.37-1.12-0.41C15.67,3.91,15.58,3.9,15.5,3.9c-0.68,0-1.35,0.46-1.7,1.16
		c-0.18,0.32-0.33,0.65-0.44,1c-0.14-0.35-0.29-0.69-0.46-1.01c-0.37-0.71-0.83-1.52-1.48-2.19C11.07,2.5,10.69,2.24,10.3,2.1
		C10.09,2.04,9.86,2,9.63,2c-0.55,0-0.99,0.21-1.2,0.58C8.21,2.96,8.16,3.42,8.27,3.97c-0.29-0.13-0.59-0.2-0.86-0.2
		c-0.42,0-0.77,0.17-1,0.48C6.17,4.61,6.16,5.04,6.17,5.33c0.03,1.05,0.47,2,0.9,2.91c0.23,0.48,0.46,0.99,0.63,1.49
		c0.31,0.89,0.6,1.85,0.6,2.85c0,0.43,0,1,0.05,1.57c0.02,0.77,0.09,1.59,0.45,2.33c0.28,0.65,0.77,1.27,1.37,1.75
		c0,0-0.01,0.01-0.01,0.01c-0.53,0.38-0.78,1.01-0.63,1.57c0.4,1.5,2.12,1.93,3.75,2.16c0.29,0.04,0.59,0.05,0.87,0.05
		c1.02,0,1.88-0.23,2.56-0.68c0.51-0.32,0.83-0.78,0.87-1.26c0.03-0.37-0.11-0.71-0.4-0.99c0.99-0.5,1.84-1.25,2.45-2.18
		c0.48-0.69,0.84-1.54,1.07-2.51c0.14-0.61,0.3-1.3,0.3-1.99C20.96,11.06,20,9.75,18.64,9.23z M16.83,18.85
		c-0.62,0.27-1.29,0.4-1.99,0.52c-0.01,0-0.03,0.01-0.06,0.01c-0.13,0.02-0.22,0.04-0.26,0.1c-0.02,0.03-0.02,0.06-0.01,0.08
		c0.01,0.04,0.05,0.07,0.11,0.08c0.07,0.01,0.13,0.01,0.2,0.01c0.25,0,0.5-0.04,0.74-0.08l0.15-0.03c0.39-0.07,0.74-0.17,1.05-0.29
		c0.03,0.02,0.06,0.05,0.09,0.08c0.33,0.33,0.36,0.87,0.08,1.24c-0.25,0.34-0.64,0.6-1.21,0.8c-0.52,0.18-1.07,0.27-1.67,0.27
		c-0.46,0-0.94-0.05-1.47-0.16c-0.76-0.15-1.7-0.4-2.31-1.07c-0.37-0.39-0.56-1.07-0.18-1.54c0.11-0.15,0.24-0.28,0.4-0.39
		c0.49,0.32,1.02,0.54,1.54,0.62c0.03,0,0.12,0.01,0.22,0.01c0.17,0,0.26-0.03,0.3-0.08c0.02-0.03,0.03-0.07,0.01-0.11l0-0.01
		l-0.01-0.01c-0.02-0.02-0.05-0.03-0.08-0.03c-0.03,0-0.05,0.01-0.07,0.03l0,0c-0.01,0-0.03,0-0.04,0c-0.02,0-0.04,0-0.05,0
		c0,0,0,0,0,0c-0.77-0.11-1.53-0.5-2.27-1.17c-0.66-0.63-1.1-1.49-1.24-2.44c-0.04-0.28-0.05-0.56-0.06-0.84l0-0.11
		c-0.03-0.53-0.05-1.1-0.05-1.79c0-0.62-0.11-1.3-0.34-2.08c-0.27-0.92-0.6-1.8-0.99-2.6C7.32,7.76,7.27,7.63,7.21,7.51
		C7.04,7.14,6.86,6.75,6.74,6.36c-0.07-0.25-0.1-0.5-0.13-0.77C6.54,5.08,6.62,4.66,6.84,4.42c0.14-0.16,0.34-0.24,0.59-0.24
		c0.17,0,0.37,0.04,0.58,0.12C9,4.69,9.55,5.66,9.87,6.36c0.29,0.62,0.62,1.34,0.85,2.09c0.16,0.55,0.34,1.11,0.52,1.65l0.17,0.54
		c0.06,0.16,0.11,0.33,0.17,0.55c0.06,0.22,0.12,0.45,0.17,0.67l0.08,0.32c0.01,0.03,0.01,0.06,0.02,0.09
		c0.01,0.02,0.02,0.04,0.03,0.05l0.04,0.02h0.03c0.02,0,0.04-0.01,0.06-0.02c0.02-0.01,0.03-0.02,0.05-0.02l0.11-0.06
		c0.08-0.04,0.15-0.07,0.23-0.11c0.16-0.07,0.32-0.14,0.47-0.19c0.16-0.06,0.33-0.11,0.48-0.15c0.06-0.01,0.11-0.03,0.17-0.04
		c0.29-0.06,0.55-0.09,0.81-0.11c0.11-0.01,0.22-0.01,0.32-0.01l0.08,0c0.06,0,0.12-0.03,0.15-0.08c0.04-0.05,0.04-0.11,0.02-0.17
		c-0.01-0.03-0.03-0.06-0.06-0.08c-0.03-0.02-0.07-0.04-0.12-0.05c-0.03,0-0.06,0-0.08,0l-0.08,0c-0.09,0-0.18,0.01-0.27,0.02
		c-0.03,0-0.06,0.01-0.1,0.01c0-0.06,0.01-0.12,0.01-0.18c0-0.05,0.01-0.11,0.01-0.16c0.01-0.13,0.01-0.27,0.01-0.4
		c0-0.26-0.01-0.53-0.03-0.8c-0.02-0.26-0.05-0.53-0.09-0.8c-0.02-0.16-0.05-0.33-0.08-0.49c-0.11-0.63-0.27-1.26-0.48-1.86
		c0.33-1.19,0.84-1.95,1.46-2.19c0.15-0.05,0.3-0.08,0.46-0.08c0.41,0,0.87,0.16,1.4,0.49c1.06,0.68,1.72,1.93,1.72,3.27
		c0,0.48-0.21,0.93-0.54,1.17c-0.32,0.23-0.71,0.35-1.07,0.35c-0.36,0-0.67-0.13-0.89-0.37c-0.31-0.33-0.43-0.74-0.47-1.03
		c-0.02-0.11-0.02-0.23-0.04-0.37c-0.01-0.11-0.11-0.2-0.24-0.2c0,0,0,0,0,0c-0.06,0-0.12,0.03-0.16,0.08
		c-0.04,0.04-0.06,0.1-0.05,0.15c0.02,0.17,0.04,0.34,0.08,0.49c0.13,0.63,0.52,1.2,1.01,1.46c-0.16,0.22-0.26,0.48-0.3,0.76
		c-0.1,0.75,0.24,1.56,0.93,2.17c0.16,0.14,0.32,0.28,0.45,0.39c0.03,0.03,0.07,0.04,0.11,0.04c0.05,0,0.1-0.02,0.14-0.06
		c0.03-0.04,0.04-0.08,0.04-0.13c-0.01-0.04-0.03-0.08-0.06-0.11c-0.07-0.05-0.12-0.1-0.18-0.15l-0.02-0.02
		c-0.44-0.39-0.75-0.85-0.91-1.32c-0.18-0.55-0.08-1.06,0.27-1.41c0.07,0.01,0.14,0.02,0.2,0.02l0.04,0c0.46,0,0.91-0.15,1.27-0.41
		c0.52,0.1,1.03,0.38,1.49,0.81c0.6,0.54,0.96,1.29,0.95,2c-0.02,0.96-0.24,1.98-0.67,3.11C19.38,16.98,18.23,18.2,16.83,18.85z
		 M13.84,11.09c0,0.08-0.01,0.16-0.01,0.24c-0.54,0.08-1.25,0.3-1.67,0.6c-0.02-0.08-0.04-0.16-0.06-0.24
		c-0.08-0.31-0.16-0.64-0.27-0.95c-0.18-0.49-0.33-0.99-0.48-1.48c-0.25-0.82-0.51-1.66-0.88-2.46l-0.07-0.17
		c-0.37-0.82-0.74-1.67-1.48-2.26C8.85,4.31,8.77,4.25,8.68,4.2C8.51,3.52,8.56,3.05,8.83,2.72c0.16-0.18,0.42-0.28,0.78-0.28
		c0.11,0,0.23,0.01,0.35,0.03c1.06,0.27,1.74,1.33,2.29,2.2c0.93,1.56,1.48,3.39,1.6,5.3l0.01,0.1
		C13.87,10.41,13.86,10.75,13.84,11.09z"/>
	<path class="st9" d="M14.68,13.06c-0.05,0-0.1,0.02-0.12,0.03c-1.18,0.54-1.83,1.99-2,2.42l-0.01,0.03
		c-0.06,0.17-0.13,0.34-0.18,0.52c-0.03,0.11,0.03,0.22,0.14,0.25c0.02,0.01,0.04,0.01,0.06,0.01c0,0,0,0,0,0
		c0.09,0,0.17-0.06,0.2-0.14l0.02-0.05c0.1-0.29,0.21-0.59,0.34-0.87c0.36-0.78,0.89-1.44,1.55-1.93l0.03-0.02
		c0.03-0.02,0.06-0.05,0.09-0.08l0.01-0.01l0-0.02c0.01-0.04-0.01-0.07-0.02-0.09C14.75,13.08,14.73,13.06,14.68,13.06z"/>
</g>
</svg>
